8888888888                888      8888888888                       
888                       888      888                              
888                       888      888                              
8888888  .d88b.   .d88b.  888      8888888 888d888 .d88b.   .d88b.  
888     d8P  Y8b d8P  Y8b 888      888     888P"  d8P  Y8b d8P  Y8b 
888     88888888 88888888 888      888     888    88888888 88888888 
888     Y8b.     Y8b.     888      888     888    Y8b.     Y8b.     
888      "Y8888   "Y8888  888      888     888     "Y8888   "Y8888  


Genre:Comedy 
Language:English
IMDb: 
http://www.imdb.com/title/tt0383010
Source:1080p.BluRay.x264.DTS-HDChina Thanks!
Encoder:Tony

Format : MPEG-4
Format profile : Base Media
Codec ID : isom
File size : 2.15 GiB
Duration : 1h 32mn
Overall bit rate mode : Variable
Overall bit rate : 3 350 Kbps

Video
ID : 1
Format : AVC
Format/Info : Advanced Video Codec
Format profile : High@L4.1
Format settings, CABAC : Yes
Format settings, ReFrames : 3 frames
Format settings, GOP : N=1
Codec ID : avc1
Codec ID/Info : Advanced Video Coding
Duration : 1h 32mn
Bit rate : 3 000 Kbps
Maximum bit rate : 12.6 Mbps
Width : 1 280 pixels
Height : 688 pixels
Display aspect ratio : 1.85:1
Frame rate mode : Constant
Frame rate : 23.976 fps
Color space : YUV
Chroma subsampling : 4:2:0
Bit depth : 8 bits
Scan type : Progressive
Bits/(Pixel*Frame) : 0.142
Stream size : 1.88 GiB (87%)
Writing library : x264

Audio
ID : 2
Format : AAC
Format/Info : Advanced Audio Codec
Format profile : LC
Codec ID : 40
Duration : 1h 32mn
Bit rate mode : Variable
Bit rate : 424 Kbps
Maximum bit rate : 517 Kbps
Channel(s) : 6 channels
Channel positions : Front: L C R, Side: L R, LFE
Sampling rate : 48.0 KHz
Compression mode : Lossy
Stream size : 279 MiB (13%)

Plot:
While trying to save their childhood orphanage, Moe, Larry, and Curly inadvertently stumble into a murder plot and wind up starring in a reality TV show.

Screen Shots:
                         
http://img594.imageshack.us/img594/8391/vlcsnap2012070621h02m50.png
 
http://img27.imageshack.us/img27/5205/vlcsnap2012070621h03m03.png
 
http://img526.imageshack.us/img526/6189/vlcsnap2012070621h02m16.png
 
http://img266.imageshack.us/img266/1041/vlcsnap2012070621h01m38.png
 
http://img266.imageshack.us/img266/4227/vlcsnap2012070621h05m40.png
 
http://img209.imageshack.us/img209/2433/vlcsnap2012070621h01m24.png


8888888888                888      8888888888                       
888                       888      888                              
888                       888      888                              
8888888  .d88b.   .d88b.  888      8888888 888d888 .d88b.   .d88b.  
888     d8P  Y8b d8P  Y8b 888      888     888P"  d8P  Y8b d8P  Y8b 
888     88888888 88888888 888      888     888    88888888 88888888 
888     Y8b.     Y8b.     888      888     888    Y8b.     Y8b.     
888      "Y8888   "Y8888  888      888     888     "Y8888   "Y8888  